# xmcd
#
# Track frame offsets:
#	150
#	7598
#	16231
#	25560
#	37712
#	50693
#	58721
#	76252
#	85471
#	96517
#	110059
#	120332
#	131374
#	143812
#
# Disc length: 2089 seconds
#
# Revision: 0
# Processed by: cddbd v1.5.2PL0 Copyright (c) Steve Scherf et al.
# Submitted via: EasyCDDAExtractor 12.0.1.1
#
DISCID=a208270e
DTITLE=Various Artist - Western Panorama Vol 2 ( 70'er )
DYEAR=0000
DGENRE=Country
TTITLE0=The Green River Boys and Glen Campbell - Kentucky Means Paradise
TTITLE1=Buck Owens - Love's Gonna Live Here
TTITLE2=Merle Travis - Saturday's Night Shuffle
TTITLE3=Roy Acuff and His Smoky Mountain Boys - Wabash Cannon Ball
TTITLE4=Cliffie Stone and His Square-Dance Band - Bake Hot Cakes Brown
TTITLE5=The Green River Boys and Glen Campbell - Divorce Me C O D
TTITLE6=Tex Ritter - When The Work's All Done This Fall
TTITLE7=Earl Taylor and His Blue-Grass Mountaineers - Schuckin' The Corn
TTITLE8=Tommy Collins - If I Could Just Go Back
TTITLE9=The Green River Boys and Glen Campbell - Long Black Limousine
TTITLE10=Buck Owens - Act Naturally
TTITLE11=Rose Maddox - Down To The River
TTITLE12=Tex Ritter - Rye Whiskey
TTITLE13=Cliffie Stone and His Square-Dance Band - Ragtime Annie
EXTD=
EXTT0=
EXTT1=
EXTT2=
EXTT3=
EXTT4=
EXTT5=
EXTT6=
EXTT7=
EXTT8=
EXTT9=
EXTT10=
EXTT11=
EXTT12=
EXTT13=
PLAYORDER=
